<?xml version="1.0" encoding="utf-8"?>
<!-- Generator: Adobe Illustrator 24.1.2, SVG Export Plug-In . SVG Version: 6.00 Build 0)  -->
<svg version="1.1" xmlns="http://www.w3.org/2000/svg" xmlns:xlink="http://www.w3.org/1999/xlink" x="0px" y="0px"
	 viewBox="0 0 600 600" style="enable-background:new 0 0 600 600;" xml:space="preserve">
<style type="text/css">
	.st0{fill:#FFFFFF;}
	.st1{fill:#009E5B;}
	.st2{fill:#62BA8D;}
	.st3{fill:#66BB90;}
	.st4{fill:#67BC90;}
	.st5{fill:#64BB8F;}
	.st6{fill:#067844;}
	.st7{fill:#5BB889;}
	.st8{fill:#087944;}
	.st9{fill:#65BB8F;}
	.st10{fill:#037743;}
	.st11{fill:#017642;}
	.st12{fill:#027743;}
	.st13{fill:#6ABD92;}
	.st14{fill:#047844;}
	.st15{fill:#0F7C47;}
	.st16{fill:#58B788;}
	.st17{fill:#4EB482;}
	.st18{fill:#59B788;}
	.st19{fill:#017843;}
	.st20{fill:#067A45;}
	.st21{fill:#48B27E;}
	.st22{fill:#69BC91;}
	.st23{fill:#6BBD92;}
	.st24{fill:#51B584;}
	.st25{fill:#18824B;}
	.st26{fill:#43B17B;}
	.st27{fill:#10854D;}
	.st28{fill:#23854F;}
	.st29{fill:#43B17D;}
	.st30{fill:#1E834D;}
	.st31{fill:#4AB380;}
	.st32{fill:#5BB887;}
	.st33{fill:#60B98B;}
	.st34{fill:#077944;}
	.st35{fill:#0F8A51;}
	.st36{fill:#47B27F;}
	.st37{fill:#63BA8D;}
	.st38{fill:#218A51;}
	.st39{fill:#077A45;}
	.st40{fill:#087945;}
	.st41{fill:#4DB37F;}
	.st42{fill:#057B46;}
	.st43{fill:#007843;}
	.st44{fill:#087A45;}
	.st45{fill:#52B582;}
	.st46{fill:#57B686;}
	.st47{fill:#49B37F;}
	.st48{fill:#1E824C;}
	.st49{fill:#09884E;}
	.st50{fill:#0C7E48;}
	.st51{fill:#60B989;}
	.st52{fill:#51B484;}
	.st53{fill:#0A7D47;}
	.st54{fill:#1A8950;}
	.st55{fill:#07814A;}
	.st56{fill:#09804A;}
	.st57{fill:#5CB887;}
	.st58{fill:#08874E;}
	.st59{fill:#DEEDDC;}
	.st60{fill:#4AB381;}
	.st61{fill:#11874F;}
	.st62{fill:#C7E1C3;}
	.st63{fill:#4BB37F;}
	.st64{fill:none;stroke:#E7323B;stroke-width:11;stroke-miterlimit:10;}
	.st65{fill:#189F59;stroke:#189F59;stroke-width:3;stroke-miterlimit:10;}
	.st66{fill:#E83B40;}
	.st67{fill:#E73737;}
	.st68{fill:#EC9597;}
	.st69{fill:#FFFEFE;}
	.st70{fill:#E2383B;}
	.st71{fill:#EB6061;}
	.st72{fill:#EB9292;}
	.st73{fill:#EC6262;}
	.st74{fill:#EC6464;}
	.st75{fill:#ED6867;}
	.st76{fill:#EA5356;}
	.st77{fill:#EA5457;}
	.st78{fill:#EC6565;}
	.st79{fill:#EC6463;}
	.st80{fill:#EA5557;}
	.st81{fill:#EA4F52;}
	.st82{fill:#EB5C5D;}
	.st83{fill:#EB5E5F;}
	.st84{fill:#EC6868;}
	.st85{fill:#E9494D;}
	.st86{fill:#EB595A;}
	.st87{fill:#EC5F5F;}
	.st88{fill:#EE7271;}
	.st89{fill:#E83F44;}
	.st90{fill:#E84145;}
</style>
<g id="Camada_2">
	<rect class="st0" width="600" height="600"/>
</g>
<g id="Camada_5">
	<g>
		<g>
			<g>
				<path class="st0" d="M299.68,443.87c-80.2,0-160.4-0.01-240.6,0.06c-2.43,0-2.99-0.55-2.98-2.98
					c0.07-90.81,0.07-181.61,0-272.42c0-2.43,0.55-2.98,2.98-2.98c160.62,0.07,321.23,0.07,481.85,0c2.43,0,2.99,0.55,2.98,2.98
					c-0.07,90.81-0.07,181.61,0,272.42c0,2.43-0.55,2.98-2.98,2.98C460.51,443.85,380.09,443.87,299.68,443.87z"/>
				<path class="st1" d="M115.25,303.76c1.72,1.28,2.08-1.13,3.3-1.21c0.97,0.7,2.24,1.02,2.88,2.17c-0.04,2.52-2.1,4.34-2.14,6.96
					c-0.09,6.18,2.59,11.15,6.27,15.76c1.93,2.43,3.83,4.97,7.37,5.1c1.11,0.04,2.42,0.6,3.02-0.98c0.03-0.56,0.09-1.11,0.62-1.45
					c0.78,0.26,0.98,1.76,2.02,1.2c1.24-0.67,1.17-2.03,0.81-3.17c-0.99-3.16-1.25-6.29-0.31-9.51c0.55-1.88,1.34-3.63,2.39-5.26
					c0.65-1.01,1.15-2.05,1.33-3.24c1.4-1.37,2.05-0.04,2.6,0.86c0.7,1.13,0.56,2.46,0.34,3.74c-0.59,3.42,0.67,4.49,4.5,3.83
					c0.42-0.21,0.84-0.41,1.25-0.62c1.03-0.18,2.21-0.75,2.94,0.4c0.65,1.03,0.06,2.09-0.47,3.04c-1.06,1.91-2.5,3.5-4.05,5.01
					c-1.55,1.51-3.05,3.04-4.11,4.96c-2.82,5.11-2.02,9.16,2.62,12.79c1.53,1.2,3.27,2.17,4.52,3.66c1.27,1.51,2.72,1.9,4.53,1.37
					c0.76,0.33,1.1,1.55,2.12,1.22c1.05-0.35,0.23-1.31,0.4-1.97c1.2-0.49,1.82,1,3.16,0.86c-0.32-1.85-1.35-3.35-2.14-4.92
					c-1.64-3.21-1.04-6.02,1.32-8.56c2.41-2.59,5.03-4.97,7.22-7.78c2.86-3.66,2.94-3.6,0-6.87c0.26-0.22,0.53-0.44,0.79-0.66
					c4.06,0.43,7.18,5.58,5.43,8.95c-1.68,3.23-1.68,3.24,1.85,3.82c0.42,0.07,0.86,0.02,1.29,0.02c2.33,0.96,2.75,3.05,0.93,5.21
					c-1.4,1.66-3.29,2.78-5.05,4.02c-5.81,4.09-6.17,8.54-1.09,13.58c1.08,1.07,2.16,2.21,3.49,2.86c7.2,3.49,13.89,8.2,22.06,9.45
					c1.09,0.17,2.14-0.32,3.19,0.08c0.61-0.15,1.6,0.89,1.79-0.57c0.58-0.47,1.21-0.3,2.36-0.04c-4.17-3.26-7.78-6.45-9.86-10.96
					c-1.59-3.44-1.69-6.85,0.21-10.16c1.28-2.23,2.6-4.44,3.82-6.71c3.03-0.07,7.24,4.34,6.52,7.51c-0.79,3.51,1.62,3.09,3.45,3.62
					c0.62-0.48,1.24-0.95,1.86-1.43c0.49-0.28,0.99-0.27,1.49-0.03c1.11,2.84-0.59,4.99-1.95,7.11c-2.73,4.24-2.47,5.61,0.71,9.29
					c4.17,4.82,9.84,6.26,15.57,7.82c5.63,1.54,11.38,2.3,17.17,2.8c0.52,0.05,1.08,0.1,1.5-0.35c0.52-0.02,1.06,0,1.57-0.08
					c0.42-0.07,1.15,0.42,1.18-0.41c0.01-0.25-0.6-0.53-0.92-0.79c1.07-0.96,2,0.04,3.05,0.23c-3.01-1.4-6.43-1.59-8.98-4.05
					c-2.54-2.46-3.7-5.25-3.07-8.68c0.37-2,0.27-4.07,0.93-6.02c3.02-1.1,4.35,1.29,5.31,3.15c1.15,2.23,2.37,3.23,4.8,2.43
					c1.05,1.69,1.05,1.69,3.18-0.73c2.8-0.61,4.04,1.46,4.09,3.39c0.17,6.06,3.88,8.67,8.94,10.34c0.91,0.3,1.77,0.81,2.53,1.43
					c1.57,1.27,1.79,2.84,0.27,4.13c-3.71,3.17-7.83,5.72-12.56,7.13c-0.88,0.26-1.73,0.15-2.16-0.86
					c-0.25-1.69-1.55-1.06-2.53-1.15c-3.39-0.32-6.47,1.59-9.85,1.34c-2.33-2.07-4.43-4.57-8.04-4.22
					c-0.25-0.03-0.49-0.06-0.74-0.09c-3.96-0.76-7.75-0.12-11.26,1.76c-7.24,3.88-14.28,8.12-21.92,11.2
					c-2.36,0.95-4.66,2.36-7.41,1.74c-1.18-1.43,0.06-2.45,0.78-3.31c3.18-3.79,6.5-7.45,11.13-9.6c2.63-1.22,5.31-2.37,7.86-4.26
					c-0.7-0.8-1.55-0.85-2.47-0.73c-5.61-1.08-11.3-1.07-16.98-1.24c-3.74-0.53-7.13,0.73-10.56,1.94
					c-4.67,1.64-9.2,3.79-14.23,4.23c-1.31-2.94-1.31-2.94-3.28-3.51c-4.58,1.02-9.19,1.51-13.87,0.74
					c-1.26-0.21-2.57-0.11-3.73-0.78c-1.91-2.52-1.85-3.03,0.91-4.52c2.93-1.58,5.82-3.21,8.68-4.91c0.66-0.4,1.76-0.55,1.46-1.78
					c5.21-1.8,10.54-0.48,15.82-0.58c1.22,0.42,2.22-0.38,3.39-0.64c-3.32-2.07-7.15-2.3-10.76-3.22c-4.05-1.03-8.2-1.72-12.13-3.16
					c-1.76-0.64-0.34,0.76-0.76,0.88c-2.45-1.27-5.19-0.3-7.71-1c-3.19-0.52-6.33-0.5-9.46,0.47c-1.81,0.56-3.65,1.34-5.63,0.71
					c-1.2-0.4-0.23-1.8-1.04-2.36c-1.45-0.37-1.74,2.47-3.46,1.18c0.36-0.48,1.17-0.97,0.58-1.59c-0.67-0.7-1.49-0.2-2.33,0.1
					c-4.6,1.65-9.27,1.76-13.96,0.35c-0.17-1.89-2.07-1.5-3.09-2.27c-1.08-0.82-2.79-1.18-2.5-2.92c0.24-1.44,1.71-1.66,2.94-2.1
					c4.72-1.66,9.78-2.33,14.23-4.79c3.57-0.24,6.94,0.18,10.28,1.78c3.18,1.52,6.7,2.34,10.24,0.76c0.53-0.1,1.07,0.09,1.86-0.13
					c-2.6-1.58-5.27-2.64-7.86-3.72c-4.64-1.93-8.37-5.77-13.58-6.47c-0.47-0.06-0.99-0.66-1.19,0.29
					c-6.79-0.98-13.37-1.4-19.83,2.16c-4.52,2.49-9.75,2.37-14.82,1.14c1.52-2,3.74-3.32,5.39-5.24c-1.01-0.8-1.85,0.55-2.74,0.02
					c0.09-1.61-0.94-0.93-1.7-0.85c-3.58,0.37-7.16,0.65-10.68-0.42c-4.24-1.78-7.1-6.26-12.26-6.24c-0.9-0.69-1.7-1.52-1.15-2.7
					c0.58-1.22,1.69-0.64,2.53-0.32c7.54,2.9,15.08,2.69,22.63,0.04c5.37-0.6,10.65-0.43,15.78,1.59c3.58,1.41,7.51,1.84,10.92,3.77
					c1.04,0.59,2.09,0.22,3.12-0.03c1.2-0.11,2.43,0.02,3.61-0.38c0.31-0.26,1.5,0.11,0.99-0.35c-6.21-5.58-10.01-13.31-16.65-18.49
					c-1.47-1.15-3.17-1.85-4.74-2.79c-3.75-2.23-5.87-6.21-5.24-9.83c0.89,0.24,1.81,0.8,2.63-0.15c1.83-0.32,3.34-0.59,2.73-3.28
					c-0.35-1.55-0.06-3.35-0.21-5.03c3.91-0.62,5.26,2.59,7.24,4.84L115.25,303.76z"/>
				<path class="st1" d="M351.02,362.11c2.76,3.4,2.02-1.21,3.21-1.4c1.59,1.78,2.5,1.72,3.77-0.61c0.94-1.72,2.01-4.37,5.09-3.47
					c0.55,2.08,0.86,4.21,1.02,6.35c0.36,4.9-1.57,7.89-6.06,9.96c-2.13,0.98-4.52,1.37-7.01,3c2.89,0.6,5.23,1.38,7.72,0.41
					c6.7-0.39,13.01-2.8,19.59-3.84c6.67-0.22,11.12-4.13,14.94-9.03c0.92-1.18,1.22-2.75,0.32-3.97c-2.27-3.07-3.35-7.09-7.07-9.02
					c1.47-2.47,2.73-2.48,6.56-0.07c0.51,0.32,0.98,1.18,1.57,0.48c0.26-0.31-0.15-1.16-0.26-1.77c0.38-0.33,0.81-0.38,1.28-0.24
					c0.74,0.3,1.05,1.29,2.05,1.36c0.1-1.38-0.97-2.47-0.57-3.78c0.89-2.56,2.46-4.65,4.38-6.52c0.84-0.2,1.44,0.27,2.01,0.77
					c6.67,5.97,7.06,14.6,0.99,21.22c-1.97,2.14-4.17,4.01-6.96,5.87c1.54,0.55,2.56,1.54,4.04,0.83c1.88-1.23,3.99-0.26,5.96-0.66
					c1.12,0.21,2.26-0.05,3.11-0.62c4.55-3.01,9.93-4.34,14.51-7.16c3.9-2.4,7.87-4.94,8.87-10.14c0.46-2.43,0.07-4.31-1.86-5.74
					c-3.54-2.6-7.58-4.63-9.45-9.01c-0.37-0.86-1.72-0.85-2.36-1.63c0.96-1.95,2.61-1.24,4.09-1.03c1.21,0.17,2.37,0.98,3.63,0.17
					c0.64-0.63,1.71-0.06,2.54-0.98c-2.51-2.33-3.11-5.02-1.37-8.09c0.48-0.85-0.13-1.66-0.46-2.44c0.43-0.25,0.87-0.51,1.3-0.76
					c1.33-0.3,1.84,0.66,1.94,1.61c0.41,3.87,3.06,6.32,5.5,8.9c1.26,1.33,2.62,2.57,3.88,3.91c3.57,3.82,3.85,6.17,1.4,10.77
					c-0.55,1.03-1.41,1.93-1.55,3.34c0.81,0.95,2.67-0.23,3.22,1.35c1.74,0.4,2.08-1.44,3.23-2c1.08,1.25,2.1,1.2,3.21-0.01
					c1.68-1.83,3.63-3.31,5.65-4.76c3.88-2.79,4.65-7.27,2.34-11.81c-1.45-2.84-3.83-4.88-5.93-7.18c-1.85-2.01-4.16-3.74-4.76-6.66
					c2.06-0.17,4.03,0.73,6.09,0.59c0.8,0.12,1.77,1.01,2.21-0.48c1.97-0.15,3.4-0.45,1.99-3.03c-0.73-1.33-1.1-3.07,0.45-4.39
					c5.07,2.21,8.03,8.48,6.9,14.61c-0.12,0.64-0.33,1.25-0.48,1.88c-0.37,1.57-1.1,3.55,0.76,4.32c1.9,0.78,4.12,2.32,6.24,0.2
					c0.23-0.26,0.47-0.53,0.7-0.79c0.94,0.67,1.93,1.13,2.86,0.06c4.75-5.47,9.23-11.02,9.33-18.87c0.04-2.95-1.93-4.92-2.69-7.43
					c1.24-0.85,2.6-1.39,4.1-1.57c1.37,1.09,2.63,1.91,2.74-0.91c0.02-0.61,0.26-1.21,0.4-1.82c1.08,0.56,0.79,2.67,2.14,2.5
					c1.65-0.21,1.09-2.08,1.39-3.2c0.64-2.41,2.78-3.76,3.81-5.86c2.66-0.16,3.38,1.86,3.45,3.73c0.1,2.78,0.84,4.77,3.72,5.49
					c0.15-0.02,0.3,0,0.45,0.04c2.09-0.57,1.88,0.85,1.55,1.98c-0.92,3.07-2.5,5.84-5.45,7.3c-5.79,2.87-9.92,7.54-13.69,12.49
					c-2.42,3.18-4.76,6.35-8.39,9.05c1.58,0.44,2.43,1.7,3.96,1.05c0.79-0.23,1.03-1.34,2-1.28c0.6,0.8,1.43,1.07,2.26,0.6
					c3.13-1.76,6.65-2.3,10.01-3.34c0.74-0.23,1.18-0.51,0.54-1.28c5.72-1.46,11.74-1.71,17.22-0.28
					c6.26,1.64,12.25,1.78,18.46,0.84c1.89-0.4,1.83,0.56,1.11,1.73c-0.92,1.48-2.34,2.45-3.81,3.36
					c-3.51,2.18-7.39,3.08-11.42,3.56c-0.43-0.01-0.87-0.02-1.3-0.03c-2.35-0.86-4.57-0.32-6.71,0.44
					c-0.11,0.37-0.07,0.57,0.08,0.76c0.99,1.19,3.03,2.03,2.35,3.89c-0.75,2.03-2.83,0.73-4.29,0.99c-0.94,0.17-1.94,0.07-2.91-0.01
					c-3.51-2.65-7.4-4.22-11.86-4.13c-0.23-0.01-0.46-0.01-0.69-0.02c-7.77-0.73-15.31-0.77-22.2,3.99
					c-3.84,2.65-8.5,3.98-13.3,6.78c2.54,0.16,4.28,0.09,6.03-0.16c0.32-0.04,0.64-0.04,0.96-0.02c3.62,0.89,6.4-1.42,9.52-2.48
					c3.42-0.3,6.64,0.5,9.85,1.58c3.68,1.25,7.39,2.43,11.16,3.42c1.03,0.27,2.15,0.67,2.27,1.99c0.12,1.33-0.86,1.94-1.88,2.34
					c-4.36,1.69-8.4,4.68-13.51,3.36c-1.11-0.03-2.28,0.32-3.24-0.55c-1.72-2.14-3.73-0.81-5.56-0.33
					c-1.13,0.29-0.45,1.17-0.01,1.76c0.71,0.96,1.49,1.89,0.44,3.09c-4.32-1.15-8.65-2.29-12.97-3.44
					c-6.28-0.72-12.4,0.03-18.46,1.76c-4.45,1.27-9.02,2.07-13.55,3.03c-1.25,0.27-2.55,0.39-3.9,1.49c2.6,1.11,5.04,1.08,7.52,0.64
					c6.51-0.74,12.34,1.01,17.61,4.79c1.67,1.2,3.61,1.92,5.38,2.92c0.94,0.53,1.93,1.18,1.7,2.47c-0.2,1.13-1.26,1.37-2.2,1.62
					c-4.3,1.15-8.65,1.49-13.07,0.89c-0.61-0.24-1.23-0.47-1.84-0.71c-2.13,0.18-4.71-0.44-4.79,3.07c-0.03,1.1-0.95,1.28-1.91,0.9
					c-5.66-2.02-11.39-3.81-17.02-5.91c-1.19-0.44-2.44-0.87-3.76-0.4c-6.03,0.25-12.07-0.33-18.09,0.34
					c-1.3,0.15-2.44,0.53-3.79,1.36c3.01,2.26,6.11,3.71,9.2,5.15c3.94,1.83,6.61,5.12,9.3,8.3c1.68,1.99,1.13,3.51-1.04,4.77
					c-1.13-1.04-2.8-0.45-3.98-1.32c0.6-0.73,1.28-0.64,2.17-0.1c-8.68-3.36-16.69-7.64-24.6-12.13c-2.28-1.3-4.6-2.39-7.33-1.92
					c-0.2-0.04-0.4-0.11-0.58-0.21c-2.71-0.86-5.32-0.14-7.88,0.61c-1.74,0.51-2.87,1.78-3.49,3.54c-0.31,0.88,0.06,2.34-1.6,2.33
					c-2.78-0.99-5.27-2.9-8.44-2.68c-2.87-2.06-5.29-0.12-7.82,0.88c-0.82,0.05-1.63,0.05-2.21-0.68c-2.39-1.94-5.23-3.23-7.56-5.28
					c-3.14-2.78-3-4.2,0.77-6.15c1.54-0.79,3.13-1.46,4.75-2.06c3.22-1.19,4.88-3.37,4.76-6.88c-0.05-1.38-0.21-2.82,0.44-4.14
					C347.71,362.15,349.42,363.13,351.02,362.11z"/>
				<path class="st2" d="M202.43,368.48c-3.94,0.52-7.78,0.83-11.36-1.64c-4.88-3.35-11.14-4.1-15.69-8.11
					c-2.49-2.19-4.82-4.31-5.75-7.9c-0.98-3.78,0.42-6,3.13-8c1.99-1.46,4.16-2.72,5.99-4.36c1.57-1.41,2.75-3.23,0.14-4.94
					c-0.21-0.13-0.28-0.25-0.21-0.38c0.07-0.13,0.14-0.19,0.21-0.19c1.97-0.82,4.17-1.57,5.48,0.68c1.25,2.15,0.23,4.18-1.67,5.65
					c-1.53,1.18-3.12,2.29-4.71,3.39c-5.14,3.54-5.41,8.59-0.97,13.16c3.56,3.67,7.92,5.84,12.57,7.64c2.5,0.97,5.09,1.85,7.06,3.78
					C198.35,368.92,200.76,366.89,202.43,368.48z"/>
				<path class="st3" d="M482.8,334.94c-1.39,1.21-3,0.1-4.5,0.28c-1.07,0.13-0.65-1.43,0.03-1.92
					c6.85-4.91,10.15-13.07,16.76-18.22c1.56-1.22,3.18-2.19,4.92-3.03c3.16-1.53,4.67-4.29,5.78-7.42
					c0.38-1.07-0.14-1.35-0.96-1.55c0.93-0.53,1.8-1.32,2.8-1.55c1.97-0.44,3.41,0.39,2.79,2.58c-0.91,3.24-2.25,6.44-5.52,8.01
					c-6.24,3-10.7,7.95-14.57,13.39c-2.22,3.12-4.66,5.89-7.65,8.22C481.98,334.27,481.33,334.68,482.8,334.94z"/>
				<path class="st4" d="M135.94,331.57c-1.55,2.14-6.36,2.11-8.24-0.16c-2.93-3.55-5.93-7.02-7.68-11.44
					c-1.97-5-2.68-9.73,0.71-14.39c0.23-0.32,0.22-0.81,0.32-1.22c-0.31-1.74,1.71-2.41,1.83-3.95c0.82-0.84,1.87-1.04,2.96-0.96
					c1.2,0.08,2.52,0.35,2.97,1.56c0.46,1.24-0.76,1.83-1.57,2.52c-4.03,3.46-5.67,8.71-3.84,13.67c1.56,4.21,3.35,8.38,6.79,11.55
					c0.69,0.64,1.16,1.53,1.72,2.31C133.08,332.69,134.39,333.03,135.94,331.57z"/>
				<path class="st5" d="M157.46,349.17c-1.3,2.14-2.53,2-4.16,0.17c-1.41-1.59-3.08-3.04-4.86-4.19c-7.19-4.67-6.07-11.54-1.39-17
					c2.02-2.36,4.54-4.27,6.21-6.96c1.36-2.2,1.14-3.41-1.76-3.25c0.08-0.07,0.15-0.18,0.24-0.21c2.15-0.84,4.75-1.78,6.27,0.24
					c1.68,2.24-0.6,4.19-2.01,5.83c-2.36,2.76-5.36,4.92-7.02,8.35c-2.32,4.81-1.32,9.1,3.62,12.42
					C154.49,345.83,156.22,347.23,157.46,349.17z"/>
				<path class="st6" d="M420.41,333.69c2.14,0,3.43,0.62,4.17,3.05c0.85,2.77,3.76,4.03,6.11,5.48c5.37,3.31,5.65,10.23,0.76,14.43
					c-4.06,3.49-8.59,5.95-13.56,7.81c-2.09,0.78-4.19,1.72-5.94,3.24c-1.36,1.19-2.84,1.37-4.36,0.27
					c1.79-2.39,4.56-3.15,7.13-4.17c4.72-1.88,9.32-3.87,12.82-7.77c1.08-1.2,2.12-2.34,2.61-3.99c1.53-5.19,1.17-6.35-3.32-9.44
					c-1.77-1.22-3.54-2.44-5.2-3.81C420,337.47,419.35,335.74,420.41,333.69z"/>
				<path class="st3" d="M401.63,368.64c-1.5,1.87-3.37,0.38-4.89,0.21c-1.39-0.16-0.21-1.4,0.4-1.76c2.63-1.54,4.95-3.47,6.89-5.77
					c2.45-2.92,4.55-6.15,4.05-10.17c-0.57-4.53-3.27-8-6.4-11.14c-0.59-0.22-0.75-0.75-0.92-1.28c2.79-3.24,2.59-3.09,5.23,0.42
					c1.82,2.42,3.58,4.84,5.07,7.47c2.68,4.72,1.67,11.11-2.3,14.88c-2.33,2.22-4.48,4.62-7.41,6.13
					C400.35,368.15,400.8,368.51,401.63,368.64z"/>
				<path class="st7" d="M255.46,386.8c1.11,1.31,2.26,0.23,3.24-0.11c3.91-1.37,7.15-3.95,10.52-6.24c1.6-1.09,1.76-2.46-0.24-3.44
					c-1.93-0.94-3.88-1.87-5.88-2.67c-3.04-1.22-4.94-3.05-5.1-6.64c-0.11-2.59-0.39-5.54-3.87-6.27c3.74-2.05,8.13,0.22,8.26,4.63
					c0.13,4.27,1.67,6.92,5.97,7.99c1.74,0.43,3.32,1.54,4.96,2.36c2.9,1.47,3.12,2.53,0.49,4.4c-4.02,2.87-7.92,6.05-13.1,6.79
					c-1.05,0.15-2.13,0.51-3.03,1.05c-2.43,1.45-2.79,0.14-2.74-1.87C255.11,386.48,255.29,386.48,255.46,386.8z"/>
				<path class="st8" d="M98.26,302.5c0.8,4.77,3.23,8.05,7.7,10.4c5.61,2.94,9.64,7.89,13.14,13.08c1.6,2.38,3.67,4.2,5.53,6.28
					c0.77,0.86,2.99,1.13,1.95,2.72c-0.74,1.14-2.01-0.69-3.16-0.63c-1.96,0.18-2.78-1.34-3.82-2.55c-0.91-1.06-2.02-1.92-3.01-2.91
					c-4.27-7.09-9.5-13.2-17.04-17.04c-3.14-1.6-4.4-4.68-5.19-7.82C93.81,301.84,95.32,301.29,98.26,302.5z"/>
				<path class="st9" d="M444.52,350.44c-0.61-0.07-1.12-0.73-1.82-0.31c-0.69,0.41-1.34,1.34-2.23,0.38
					c-0.97-1.06-0.19-2.04,0.32-2.95c4.28-7.69,4.24-7.91-1.91-14.04c-1.68-1.67-3.25-3.45-4.83-5.21
					c-1.53-1.71-2.86-3.51-2.61-6.03c0.08-0.84-0.62-1.32-1.3-1.71c3.54-1.36,5.04-0.66,5.83,2.81c0.87,3.79,3.84,6.12,6.17,8.89
					c0.83,0.98,1.92,1.73,2.85,2.63c3.76,3.64,4.04,5.64,1.79,10.27C445.95,346.88,444.44,348.33,444.52,350.44z"/>
				<path class="st10" d="M448.33,318.08c3.46,3.95,7.16,7.72,10.32,11.9c3.8,5.03,3.79,11.35-3.21,15.44c-1.72,1-3,2.75-4.51,4.12
					c-0.61,0.56-1.08,1.54-2.08,1.3c-1.25-0.3-1.01-1.47-1.11-2.4c1.89-2.94,5.51-3.84,7.56-6.8c2.1-3.04,1.8-5.83,0.73-8.83
					c-1.24-3.48-4.08-5.76-6.57-8.31c-1.69-1.73-3.76-3.42-2.98-6.36C447.09,317.52,447.71,317.56,448.33,318.08z"/>
				<path class="st11" d="M482.81,304.37c4.41,5.05,4.04,10.4,1.41,16.16c-1.91,4.18-4.77,7.62-7.6,11.11
					c-0.69,0.86-1.54,1.57-2.78,1.18c-1.01-0.32-0.68-1.19-0.73-1.9c3.03-3.78,5.88-7.63,7.71-12.2c2.49-6.23,1.2-11.66-4.1-15.82
					c-0.98-0.77-1.78-1.3-0.49-2.41C479.33,300.26,481.47,301.64,482.81,304.37z"/>
				<path class="st11" d="M200.89,340.13c0.35,2.32-1.3,3.9-2.45,5.43c-4.18,5.61-1.69,11.42,2.03,15.74
					c1.89,2.19,3.99,4.22,6.49,5.77c0.56,0.35,1.75,0.51,1.28,1.49c-0.55,1.15-1.47,0.27-2.23,0.02c-0.6-0.21-1.2-0.44-1.8-0.66
					c-5.33-2.69-9.29-6.75-11.48-12.27c-0.91-2.28-1.49-4.91-0.02-7.33c1.89-3.11,3.38-6.48,6.11-9.02
					C199.8,338.87,200.52,339.08,200.89,340.13z"/>
				<path class="st12" d="M169.53,321.16c3.83,1.54,4.25,3.14,1.72,6.13c-2.56,3.04-5.25,5.95-8.09,8.73
					c-2.85,2.79-3.08,4.72-1.28,8.35c0.29,0.58,0.67,1.13,0.83,1.74c0.41,1.52,2.84,3.08,1.04,4.45c-1.58,1.21-2.26-1.78-3.78-2.15
					c-0.14-0.17-0.29-0.32-0.4-0.5c-4.54-7.3-4.22-8.96,2.1-14.72C165.3,329.9,168.55,326.24,169.53,321.16z"/>
				<path class="st7" d="M408.68,398.56c2.11-1.85,1.43-3.72-0.25-5.24c-3.21-2.9-5.88-6.43-10.23-7.99
					c-2.6-0.93-4.97-2.52-7.46-3.77c-0.6-0.3-1.23-0.52-1.2-1.3c0.03-0.77,0.63-1.09,1.3-1.2c1.58-0.27,3.11-0.76,4.76-0.74
					c5.93,0.05,11.85-0.02,17.78-0.05c0.6-0.09,0.77,0.19,0.63,0.73c-8.08-0.78-15.66-0.32-20.01,1.27
					c4.17,2.17,8.54,3.86,12.23,6.32c2.99,2,6.11,4.68,7.99,8.14c1.25,2.3-0.17,3.49-2.08,4.08
					C411.09,399.15,409.8,399.18,408.68,398.56z"/>
				<path class="st13" d="M472.42,331.71c-2.02,2.57-4.79,1.46-6.93,0.77c-2.23-0.72-1.66-3.11-1.08-5.05
					c2.11-7.06,0.22-12.43-5.75-16.45c-0.67,0.12-1.07-0.18-1.26-0.81c1.36-2.33,2.7-2.24,4.87-0.63c4.81,3.58,7.82,7.92,7.35,14.09
					c-0.13,1.68-0.74,3.33-1.1,5c-0.26,1.2-0.18,2.49,0.67,3.34C470.2,332.99,471.38,332.31,472.42,331.71z"/>
				<path class="st14" d="M346.45,362.14c0,1.83,0.02,3.66-0.01,5.49c-0.05,3.18-1.75,5.14-4.62,6.3c-2.19,0.89-4.32,1.93-6.5,2.85
					c-1.97,0.84-2.21,1.94-0.51,3.27c2.61,2.04,5.02,4.38,8.26,5.51c1.49,0.52,1.13,1.03-0.16,1.33c-5.49-0.5-9.22-4.18-13.19-7.36
					c-1.05-0.84-1.26-1.81,0.55-2.5c2.69-1.03,5.11-2.64,7.91-3.51c2.92-0.9,4.1-3.39,4.09-6.28c-0.01-2.48,0.74-4.39,2.89-5.69
					C345.95,360.97,346.44,361.03,346.45,362.14z"/>
				<path class="st15" d="M386.54,350.49c4.75,0.75,10.18,9.87,7.58,13.32c-2.55,3.38-5.38,6.8-9.8,8.1
					c-1.95,0.57-3.78,2.33-5.97,0.61c3.92-1.57,7.28-3.86,10.16-7.02c2.53-2.77,2.78-5.31,0.29-8.09
					C387.05,355.46,385.99,353.22,386.54,350.49z"/>
				<path class="st16" d="M193.19,397.2c5.38-0.56,10.01-3.18,14.69-5.53c5.47-2.74,10.72-5.92,16.22-8.58
					c3.15-1.52,6.63-1.31,9.99-0.23c-5.12-0.52-8.99,2.52-13.09,4.75c-6.13,3.34-12.29,6.63-18.81,9.16
					c-2.18,0.85-4.44,1.58-6.73,1.98c-1.44,0.25-3.21,0.91-4.44-0.75C191.51,397.1,192.21,396.78,193.19,397.2z"/>
				<path class="st17" d="M482.71,361.55c5.26,0.5,9.29-2.88,13.9-4.43c1.09-0.37,1.7-1.68,0.26-1.97
					c-7.64-1.57-14.51-6.03-22.57-5.93c-0.67,0.39-1.33,0.54-1.94-0.11c4.58-1.62,9.19-0.88,13.56,0.49
					c5.46,1.71,10.95,3.3,16.45,4.9c0.78,0.23,1.74,0.21,2.48,1.44C497.81,359.37,491.1,363.53,482.71,361.55z"/>
				<path class="st18" d="M442.43,381.69c4.53-0.1,9.1,0.08,13.38-1.83c0.55-0.25,1.47-0.18,1.37-1.04
					c-0.05-0.41-0.61-0.91-1.06-1.09c-3.93-1.58-7.28-4.18-10.99-6.14c-3.83-2.02-7.96-2.62-12.25-2.17
					c-1.15,0.32-2.33,0.15-3.49,0.17c-0.95,0.02-2.09,0.12-2.09-1.28c0.01-1.48,1.17-1.54,2.28-1.53c0.56,0,1.03,0.21,1.41,0.62
					c-0.53,0.29-1.06,0.58-2.45,1.35c3.82,0,6.76,0.06,9.69-0.01c4.4-0.11,8.59,0.7,12.4,2.95c4.53,2.68,8.91,5.65,15.02,6.84
					c-3.76,2.19-7.17,2.59-10.47,3.04C450.95,382.12,446.68,383.14,442.43,381.69z"/>
				<path class="st19" d="M241.18,356.3c0.03,1.92,0.04,3.8-0.4,5.74c-1.12,4.91,1.45,9.13,6.28,10.8c1.72,0.59,3.45,1.12,5.16,1.73
					c0.68,0.24,1.54,0.35,1.71,1.24c0.05,0.22-0.29,0.76-0.42,0.75c-0.72-0.07-1.68-0.02-2.1-0.45c-0.75-0.77-1.46-1.21-2.52-1.02
					c-3.12-1.25-6.67-1.47-9.35-3.82c-2.97-2.6-3.87-5.95-2.91-9.6c0.71-2.71,0.54-5.27,0.02-7.9
					C239.37,352.47,240.27,354.39,241.18,356.3z"/>
				<path class="st11" d="M143.15,310.27c0.62,0.9,0.55,1.61-0.19,2.56c-3.5,4.51-4.79,9.48-2.71,15.04c0.25,0.67,0.37,1.5,0.23,2.2
					c-0.28,1.37-0.69,2.88-2.52,2.8c-1.88-0.09-1.02-1.78-1.4-2.75c-1.12-3.82-1.97-7.63-0.92-11.65c0.95-3.65,3.29-6.16,6.31-8.17
					C142.34,309.89,142.74,309.85,143.15,310.27z"/>
				<path class="st20" d="M193.19,397.2c-0.72,0.27-1.44,0.54-2.16,0.8c-2.31-1.04-1.07-2.64-0.26-3.62
					c3.44-4.15,7.08-8.23,12.38-10.01c2.77-0.93,4.76-3.38,7.81-3.7c0.38-0.04,0.24-0.71-0.16-1.01c0.81-1.14,1.95-0.59,2.97-0.56
					c0.56,0.02,1.05,0.38,1.17,0.95c0.14,0.67-0.44,0.91-0.91,1.15c-1.9,0.98-3.75,2.06-5.71,2.88
					C201.81,386.8,196.98,391.39,193.19,397.2z"/>
				<path class="st21" d="M247.08,376.38c-4.24,1.66-8.48,0.45-12.65-0.24c-3.8-0.62-7.53-1.67-11.27-2.63
					c-5.48-1.41-9.67-4.85-12.99-9.19c-1.67-2.18-1.16-4.94,0.69-7.16c1.77-2.13,2.83-4.55,3.06-7.32c1.94,0.17,1.71,1.57,1.46,2.8
					c-0.43,2.13-1.26,4.09-2.68,5.8c-1.3,1.57-1.7,3.4-0.31,5.01c2.95,3.42,5.99,6.82,10.8,7.7
					C230.97,373.72,238.9,375.59,247.08,376.38z"/>
				<path class="st22" d="M223.18,371.15c-3.77,0.08-11.44-5.02-12.33-8.43c-0.42-1.62-0.5-3.42,1.08-4.73
					c1.76-1.47,2.11-3.65,2.78-5.67c0.35-1.05,0.16-1.88-0.8-2.48c-0.45-0.03-0.89-0.06-1.34-0.09c1.67-0.82,3.32-2.35,5.16-0.44
					c1.36,1.41,0.67,5.48-1.2,7.73c-3.33,4.01-3.19,5.27,0.44,9.08C218.85,368.08,220.96,369.66,223.18,371.15z"/>
				<path class="st23" d="M363.84,352.96c3.79-1.15,4.24-0.81,3.93,2.83c-0.15,1.81-0.17,3.59,0.27,5.41
					c1.54,6.4-1.45,11.01-7.97,12.48c-0.4-1.37,0.42-2.27,1.3-3.06c2.58-2.32,3.3-5.3,2.52-8.47
					C363.12,359.03,363.38,356.02,363.84,352.96z"/>
				<path class="st24" d="M464.62,351.8c-1.92,1.36-4.2,0.19-6.24,0.85c-0.45,0.15-1.09-0.22-1.25-0.79
					c-0.17-0.62,0.29-1.01,0.77-1.25c2.1-1.06,4.13-2.35,6.34-3.09c5.22-1.73,9.18-6.2,14.69-7.01c4.92-0.73,9.95-1.06,14.9,0.24
					c-9.71-1.55-17.48,3.31-25.41,7.66c-1.49,2.09-4.1,2.05-6.25,3.23c-0.25,0.05,0.17,0.12,0.23,0.07
					C463.13,351,463.91,351.05,464.62,351.8z"/>
				<path class="st25" d="M374.94,383.09c2.04-1.95,4.23-0.73,5.9,0.24c8.34,4.83,16.99,9.02,25.71,13.09
					c0.16,0.07,0.23,0.32,0.4,0.57c-0.78,0.09-1.52,0.17-2.25,0.25c-7.31-2-13.77-5.87-20.38-9.37
					C381.21,386.23,378.18,384.46,374.94,383.09z"/>
				<path class="st26" d="M430.98,367.4c-0.54-0.02-1.08-0.09-1.61-0.06c-0.73,0.04-1.67-0.03-1.56,1.09
					c0.08,0.83,0.88,0.81,1.51,0.85c1.18,0.06,2.37,0.09,3.55,0.13c-2.27,1.05-4.67,0.31-7,0.48c-0.91,0.07-1.8-0.22-1.99-1.25
					c-0.25-1.35,0.91-1.64,1.79-1.84c5.11-1.17,10.29-2.09,15.36-3.42c4.25-1.12,8.51-1.98,12.88-2.33c2.56-0.2,5.05,0.14,7.46,1.03
					c-6.03-0.28-11.85,1.08-17.57,2.65C439.57,365.91,435.25,366.49,430.98,367.4z"/>
				<path class="st3" d="M200.89,340.13c-0.69-0.28-1.38-0.56-2.07-0.84c1.18-3.59,1.72-3.8,4.39-1.35c2.1,1.93,5.06,2.74,6.51,5.6
					c1.1,2.16,2.04,4.02,0.46,6.27c-0.41,0.58-0.49,1.23,0.53,1.36c-1.43,1.07-2.93-0.62-4.48,0.12c-0.38,0.18-0.74-1.04-0.48-1.86
					C206.98,345.44,205.05,341.81,200.89,340.13z"/>
				<path class="st27" d="M123.01,349.34c-1,1.82-2.95,1.91-4.61,2.42c-3.29,1.01-6.64,1.83-9.93,2.83
					c-0.75,0.23-1.89,0.39-1.86,1.48c0.02,0.8,0.86,1.16,1.57,1.47c1.84,0.81,3.67,1.63,5.5,2.45c-0.33,1.18-1.31,0.69-1.92,0.98
					c-4.34-0.75-7.8-3.54-11.94-4.74c-0.01-0.28-0.02-0.57-0.04-0.85c7.27-2.1,14.55-4.19,21.82-6.29
					C122.13,348.87,122.65,348.67,123.01,349.34z"/>
				<path class="st9" d="M178.89,332.97c0,0.19,0,0.38,0,0.57c-0.76,0.02-1.52,0.15-2.26,0.05c-1.32-0.18-3.15,0.7-3.84-0.9
					c-0.63-1.46,1.18-2.08,1.95-3.03c1.9-2.37,0.42-4.18-0.83-6.11c-0.9-1.39-1.84-2.67-3.58-3.05c3.33-1.13,6.24,0.14,8.63,3.54
					c1.98,2.82,1.54,5.15-1.03,7.28c-0.42,0.35-1.25,0.8-0.56,1.47C177.64,333.08,178.36,332.92,178.89,332.97z"/>
				<path class="st28" d="M159.2,369.82c0.61,0.13,1.22,0.25,2.54,0.52c-4.65,2.57-8.72,4.8-12.77,7.08
					c-1.16,0.66-3.29,1.18-0.16,2.45c1.39,0.56-0.15,0.89-0.65,1.16c-3,0.29-5.51-1.14-8.22-2.25c5.93-1.4,10.47-5.24,15.65-7.76
					C156.72,370.47,157.81,369.66,159.2,369.82z"/>
				<path class="st29" d="M363.84,352.96c-0.41,5.33,2.53,10.77-0.42,16c-0.94,1.67-2.22,3.15-3.35,4.71
					c-1.74,0.72-3.48,1.43-5.92,2.44c2.04,0.11,3.32,0.17,4.6,0.24c-2.43,1.6-5.29,0.14-7.84,1.09c-0.57,0.21-1.13-0.57-1.15-1.29
					c-0.02-0.88,0.53-1.35,1.31-1.62c2.04-0.71,4.09-1.37,6.09-2.18c5.18-2.11,7.06-5.3,5.99-10.64c-0.36-1.83-0.45-3.62-0.53-5.44
					c-0.8-0.86-0.11-1.76-0.06-2.64C362.8,353.02,363.29,352.93,363.84,352.96z"/>
				<path class="st30" d="M123.1,341.39c0.34-0.41-1.82-1.39,0.03-1.15c2.48,0.33,5.1,0.64,7.31,2.19
					c4.59,3.23,9.72,5.39,14.86,7.55c0.78,0.33,2.32,0.51,1.85,1.69c-0.45,1.13-1.71,1.08-2.64,0.1c-0.52-0.66-1.55,0.24-1.99-0.66
					C135.78,348.38,129.48,344.8,123.1,341.39z"/>
				<path class="st31" d="M168.5,384.22c6.14-1.47,12-3.81,17.95-5.87c2.42-0.84,4.93-1.24,7.37,0.07
					c-5.13,0.91-9.65,3.61-14.64,4.95c-3.63,0.97-7.2,2.28-11.02,2.33c-1.25,0.02-2.63,0.34-3.59-0.89
					C165.76,383.77,167.12,383.92,168.5,384.22z"/>
				<path class="st32" d="M519.17,338.86c3.62-1.17,7.28-2.21,10.67-4.04c1.66-0.9,2.98-2.1,4.19-3.46
					c0.84-0.95-0.28-0.89-0.73-1.15c1.28-0.53,2.55-1.11,3.85-1.58c0.7-0.25,1.55-0.41,2.05,0.34c0.46,0.68,0.28,1.45-0.16,2.12
					c-1.27,1.92-2.92,3.45-4.99,4.45C529.36,337.8,524.53,339.51,519.17,338.86z"/>
				<path class="st7" d="M241.18,356.3c-1.49-0.88-2.32-2.93-4.52-2.53c0.08-1.61,1.27-1.45,2.32-1.37
					c4.31,0.31,10.72,5.55,11.97,9.76c-3.17,2.42-3.16,2.41-4.8-1.14C245.13,358.79,243.45,357.22,241.18,356.3z"/>
				<path class="st33" d="M143.15,310.27c-0.4,0.01-0.8,0.02-1.21,0.03c1.27-2.45,2.92-2.29,5.03-0.98
					c2.13,1.33,4.14,2.54,2.79,5.54c-0.35,0.78-0.8,1.52-1.13,2.31c-0.86,2.05,0.6,1.48,1.61,1.39c-1.7,1.74-3.76,0.08-5.66,0.49
					c-1,0.21-0.82-1.5-0.37-2.35c0.74-1.38,1.11-2.81,0.91-4.35C144.98,311.22,144.81,310.01,143.15,310.27z"/>
				<path class="st9" d="M115.25,303.76c-0.41-0.08-0.96-0.38-1.2-0.21c-2.39,1.64-3.15,0.66-3.38-1.83
					c-0.33-3.44-3.46-6.65-7.12-7.54c-0.29,0.09-0.53,0.01-0.71-0.24C109.03,291.51,115.1,296.31,115.25,303.76z"/>
				<path class="st34" d="M428.83,321.32c1.88,0.08,2.26,1.1,1.36,2.53c-1.72,2.74-1.84,5.13,0.99,7.22
					c0.6,0.44,1.17,1.15,0.48,1.89c-1.18,1.28-2.36,0-3.54-0.13c-0.25-0.34-0.48-0.71-0.77-1.03
					C423.43,327.57,423.84,324.64,428.83,321.32z"/>
				<path class="st35" d="M154.77,363.1c-0.21-0.48-0.41-0.96-0.75-1.74c6.13,1.43,12.06,2.8,17.98,4.19
					c2.3,0.54,4.59,1.1,6.88,1.68c0.68,0.17,1.69,0.21,1.47,1.28c-0.16,0.78-0.9,1.3-1.68,1.31c-1.23,0.02-2.6,0.6-3.65-0.59
					c1.9-1.92-0.54-1.5-1.03-1.61c-5.6-1.31-11.23-2.5-16.85-3.74C156.33,363.71,155.4,363.84,154.77,363.1z"/>
				<path class="st36" d="M121.13,334.86c-2.69,2.23-4.59-0.36-6.89-0.98c-7.82-2.09-15.3-5.92-23.76-4.89
					c6.54-0.61,13.04-0.92,19.4,1.36c2.83,1.01,5.76,1.73,8.64,2.58C119.3,333.69,121.19,332.95,121.13,334.86z"/>
				<path class="st32" d="M506.16,344.51c1.72,0.04,3.44,0.1,5.15,0.1c0.72,0,1.62,0.14,1.86-0.83c0.2-0.85-0.42-1.41-1.02-1.87
					c-1.16-0.91-3.38-1.68-2.92-3.02c0.58-1.7,2.85-0.63,4.36-0.75c1.41-0.11,3.03-0.52,4.28,0.69c-1.35,0-2.69,0-4.39,0
					c1.25,1.75,3.28,2.1,4.29,3.64c0.88,1.35,1.25,2.39-0.88,2.58c-4.25,0.39-8.51,0.91-12.72-0.34
					C504.77,344.05,505.44,344.08,506.16,344.51z"/>
				<path class="st3" d="M504.38,303.03c-0.72,0.03-1.32-0.5-2.15-0.24c-2.13,0.65-2.44-0.31-2.27-2.34c0.21-2.47,0.8-5.46-2.9-6.27
					c-0.3,0.1-0.56,0.03-0.78-0.2c2.3-1.54,4.6-0.94,6.59,0.42c2,1.36,1.88,3.7,1.71,5.83
					C504.49,301.16,503.98,302.05,504.38,303.03z"/>
				<path class="st37" d="M361.38,389.37c1.31-1.35,0.24-3.44,1.87-4.92c3.47-3.16,7.2-2.54,11.11-1.57
					c-6.33,0.1-7.58,1.15-8.29,7.18c-0.22,1.92-0.87,2.33-2.41,1.08C362.92,390.53,362.15,389.96,361.38,389.37z"/>
				<path class="st38" d="M414.01,379.01c-0.21-0.24-0.42-0.49-0.63-0.73c0.93-0.9,2.01-0.63,3.02-0.29
					c5.7,1.91,11.26,4.23,17.09,5.79c0.27,0.07,0.39,0.69,0.58,1.05c-0.86,0.54-1.74,0.41-2.63,0.1
					C425.36,383.75,419.71,381.3,414.01,379.01z"/>
				<path class="st39" d="M496.27,293.97c0.26,0.07,0.52,0.13,0.78,0.2c0.87,1.05,0.32,1.63-0.62,2.26
					c-1.72,1.16-2.35,2.96-2.56,4.93c-0.13,1.24,0.17,2.91-1.65,2.91c-1.67,0-2.22-1.39-2.25-2.94c-0.01-0.32-0.08-0.63-0.12-0.95
					C490.33,296.58,493.51,295.49,496.27,293.97z"/>
				<path class="st40" d="M400.77,338.73c0.56,0.25,0.82,0.7,0.92,1.28c-1.31,2.19-2.63,4.37-3.94,6.56
					c-0.94,0.72,0.73,3.49-2.12,2.69c-0.4-0.05-0.8-0.1-1.2-0.14c-0.96-2.21,0.09-6.22,2.11-7.67
					C397.89,340.48,399.35,339.63,400.77,338.73z"/>
				<path class="st41" d="M131.49,362.82c2.31,0.13,4.47-0.55,6.6-1.29c3.1-1.07,6.03-0.38,8.97,0.57
					c-5.36-0.12-10.25,2.02-15.34,3.2c-1.15,0.27-2.25,0.87-3.4,0.95c-2.11,0.16-3.5-0.49-2.18-2.97
					C128.04,364.49,129.66,362.47,131.49,362.82z"/>
				<path class="st42" d="M362.57,353.62c1.32,0.85-0.14,1.76,0.06,2.64c-1.72,1.45-3.56,2.78-4.52,4.94
					c-0.41,0.93-0.49,2.53-1.72,2.38c-1.28-0.15-2.09-1.4-2.17-2.86C355.85,356.99,359.21,355.3,362.57,353.62z"/>
				<path class="st43" d="M102.83,293.94c0.24,0.08,0.47,0.16,0.71,0.24c2.3,2.46,0.63,5.51,0.89,8.22
					c0.15,1.51-2.28-0.01-3.54-0.05C99.44,298.19,99.95,295.95,102.83,293.94z"/>
				<path class="st44" d="M457.41,310.17c0.42,0.27,0.84,0.54,1.26,0.81c0.25,1.44,0.02,2.91,0.66,4.34
					c0.5,1.11,2.14,2.28,0.64,3.61c-1.3,1.16-2.21-0.74-3.41-0.8c-0.55-1.12-1.25-2.18-1.63-3.36
					C454.2,312.48,454.47,310.56,457.41,310.17z"/>
				<path class="st45" d="M255.46,386.8c-0.17-0.01-0.35-0.01-0.52-0.01c-2.32-1.3-4.52,0.07-6.63,0.56
					c-2.15,0.5-4.09,1.86-6.15,2.77c-1.04,0.46-1.76,2.14-2.98,1.47c-1.3-0.72-0.6-2.3-0.58-3.54c1.34-0.27,2.48-1.13,3.86-1.3
					c3.63-0.55,7.13-2.05,10.94-1.3C254.35,385.63,255.38,385.39,255.46,386.8z"/>
				<path class="st46" d="M474.35,365.52c0.17-1.33-0.33-2.23-1.52-2.92c-1.12-0.65-1.45-1.64-0.33-2.62
					c1.19-1.05,5.63-0.36,6.99,1.02c-0.98-0.2-1.84-1.33-3.1-0.23c0.6,1.62,3.95,2.38,2.01,4.85
					C477.22,367.11,475.68,366.34,474.35,365.52z"/>
				<path class="st47" d="M142.51,351.11c0.66,0.23,1.66-0.57,1.99,0.66c-4.33,1.62-8.67,1.49-12.59-0.86
					c-2.89-1.73-5.77-1.99-8.9-1.57c-0.47-0.09-0.94-0.18-1.41-0.27c5.5-1.36,10.81-0.99,15.95,1.54
					C139.09,351.36,140.7,352.56,142.51,351.11z"/>
				<path class="st48" d="M66.46,331.96c1.36-2.05,3.21-0.71,4.15,0.01c2.37,1.81,4.71,3.54,7.53,4.61
					c0.46,0.18,1.59,0.66,0.58,1.62C74,337.35,69.64,335.81,66.46,331.96z"/>
				<path class="st49" d="M497.61,329.64c0.64,0.06,1.28,0.11,1.91,0.21c0.16,0.03,0.29,0.25,0.63,0.57
					c-1.4,1.09-3.07,1.39-4.63,1.79c-2.78,0.72-5.56,1.29-8.05,2.87c-1.33,0.85-2.78,0.91-2.67-1.43
					C489.08,332.32,493.34,330.98,497.61,329.64z"/>
				<path class="st50" d="M91.1,339.47c0.82-0.23,1-1.41,2.05-1.33c0.73,0.05,1.6-0.16,2.03,0.59c0.54,0.92-0.34,1.45-0.92,1.71
					c-2.27,0.99-3.15,3.85-5.81,4.26c-0.84,0.08-1.99,0.46-2.33-0.42c-0.34-0.87,0.37-1.8,1.2-2.36
					C88.57,341.07,89.84,340.28,91.1,339.47z"/>
				<path class="st51" d="M431.44,384.92c0.88-0.03,1.76-0.07,2.63-0.1c1.51-0.07,1.33-0.93,1-1.98c-0.59-1.84,0.18-2.89,2.02-2.21
					c1.22,0.45,2.52-1.2,3.5,0.35c-1.73,0.13-1.25,1.04-0.64,1.91c1.36,1.97-0.01,2.52-1.53,2.71
					C436.07,385.89,433.7,385.88,431.44,384.92z"/>
				<path class="st52" d="M482.81,304.37c-2.03-1.56-3.94-3.34-6.58-3.88c4.29-2.31,7.34,0.35,10.49,2.61
					C485.55,303.94,484.65,305.61,482.81,304.37z"/>
				<path class="st53" d="M242.45,386.74c-1.06,1.09-2.01,2.52-3.86,1.3c-0.18-2.49-1.95-3.81-3.77-5.1
					C238.14,381.62,240.8,382.94,242.45,386.74z"/>
				<path class="st54" d="M506.16,344.51c-0.66,0.07-1.33,0.13-1.99,0.2c-3.6-0.37-6.15-3.33-9.64-3.95
					C498.1,339.36,504.36,341.38,506.16,344.51z"/>
				<path class="st55" d="M131.49,362.82c-1.02,0.57-2,1.23-3.06,1.69c-1.18,0.51-2.09,0.22-2.29-1.23c0.2-0.67,0.61-1.1,1.33-1.18
					c0.71,0.04,1.24-0.17,1.46-0.94c0.46-1.65,1.69-2.05,2.98-1.26C133.63,360.96,131.74,361.84,131.49,362.82z"/>
				<path class="st56" d="M168.5,384.22c-1.18,1.06-2.61,0.44-3.93,0.59c-0.88-1.65,0.78-2.49,1.18-3.74
					c0.21-0.03,0.42-0.11,0.62-0.09c1.04,0.09,2.21-1.28,3.12,0.19C170.33,382.52,168.81,383.2,168.5,384.22z"/>
				<path class="st57" d="M345.12,387.57c1.25-2.59,5.43-3.06,7.82-0.88c-1.61-0.46-3.35-1.38-3.49,1.59
					c-0.05,1.11-0.92,1.28-1.87,0.7C346.78,388.49,345.94,388.04,345.12,387.57z"/>
				<path class="st58" d="M472.36,349.11c0.65,0.04,1.3,0.07,1.94,0.11c-2.61,2.25-5.34,4.08-9.01,2.56
					c0.99-2.38,3.36-1.99,5.24-2.59C471.14,349.17,471.75,349.14,472.36,349.11z"/>
				<path class="st59" d="M470.53,349.2c-1.75,0.86-3.49,1.72-5.24,2.59c-0.22,0-0.45,0.01-0.67,0.02c-0.86-0.28-1.84,0.5-2.99-0.56
					c2.39-1,4.59-1.92,6.79-2.84C468.88,349.31,469.8,349,470.53,349.2z"/>
				<path class="st60" d="M346.45,362.14c-0.43-0.2-0.86-0.4-1.29-0.6c2.09-1.26,4.11-1.77,5.86,0.57
					C349.51,364.47,347.98,364.64,346.45,362.14z"/>
				<path class="st61" d="M122.89,300.4c1.73,2.4-1.63,2.44-1.83,3.95c-1.39,0.16-2.45-0.13-2.52-1.8
					C119.8,301.44,121.35,300.93,122.89,300.4z"/>
				<path class="st62" d="M121.13,334.86c-0.87-0.64-1.74-1.29-2.61-1.93c0.79-0.09,1.22-0.3,0.52-1.13
					c-0.81-0.97-2.04-1.59-2.45-2.9c2.28,1.82,4.55,3.63,6.83,5.45C123.06,336.3,121.91,334.76,121.13,334.86z"/>
				<path class="st63" d="M448.33,318.08c-0.61,0.02-1.22,0.03-1.84,0.05c2.76-2.11,5.32-1.04,7.85,0.48
					C452.15,320.61,450.3,318.71,448.33,318.08z"/>
				<path class="st15" d="M395.61,349.27c1.88,0.02,1.08-2.06,2.12-2.69c0.07,0.52,0.04,1.09,0.24,1.55
					c0.47,1.1,1.97,2.44,0.49,3.27C396.94,352.25,396.18,350.54,395.61,349.27z"/>
			</g>
		</g>
		<polygon class="st64" points="299.86,175.18 103.14,271.75 299.86,371.18 496.86,273.18 		"/>
		<g>
			<g>
				<path class="st65" d="M208.36,239.75c0-1.84,0-2.77,0-4.66c12.34-4.49,24.3-9.94,36.01-15.86c-0.01,2.01-0.01,3.05-0.01,5.23
					c-6.41,3.95-9.68,5.89-16.34,9.49c-1.02,0.44-1.54,0.65-2.57,1.08C218.74,237.06,215.32,238.04,208.36,239.75z M228.17,310.14
					c6.59,3.7,9.77,5.48,15.99,8.98c-0.01,2.21-0.01,3.28-0.01,5.33c-12.08-5.41-23.94-11.23-35.74-17.24c0-1.88,0-2.8,0-4.62
					c7.15,2.92,10.57,4.18,17.22,6.42C226.65,309.46,227.16,309.69,228.17,310.14z M221,268.72c-0.05-12.81-0.18-25.59-0.5-38.39
					c5.01-2.1,7.48-3.22,12.35-5.5c-0.38,14.46-0.34,28.93-0.33,43.4c0,2.97,0,4.46,0.01,7.44c0.02,14.55,0.02,29.1,0.42,43.64
					c-4.77-2.23-7.2-3.39-12.21-5.86c0.25-12.81,0.3-25.6,0.28-38.41C221.01,272.52,221.01,271.25,221,268.72z"/>
				<path class="st65" d="M255.3,218.98c0.01-2.27,0.02-3.35,0.04-5.39c6.74-3.52,10.03-5.3,16.49-8.68
					c-0.03,2.84-0.05,4.45-0.09,7.94c-0.46,0.23-0.69,0.35-1.15,0.58C264.6,215.51,261.54,216.65,255.3,218.98z M270.87,327.88
					c-0.03,3.59-0.05,5.26-0.09,8.23c-6.36-2.77-9.54-4.13-16.05-6.98c0.01-2.1,0.02-3.21,0.04-5.53c6.06,1.66,9.03,2.4,14.96,3.82
					C270.19,327.61,270.42,327.7,270.87,327.88z M266.17,264.93c0.12-19.03,0.32-38.06,0.08-57.08c4.49-2.37,6.71-3.54,11.07-5.79
					c-0.74,20.57-0.7,41.18-0.85,61.76c-0.02,3.32-0.03,4.99-0.06,8.33c-0.15,22.11-0.42,44.24-0.19,66.35
					c-4.35-1.91-6.52-2.85-10.9-4.75c0.62-19.32,0.65-38.65,0.78-57.97C266.13,271.43,266.14,269.25,266.17,264.93z M271.36,262.31
					c4.53-0.58,6.77-0.85,11.23-1.32c18.02-1.14,20.04-23.46,19.56-36.86c-0.39-10.87-1.34-27.74-16.93-19.37
					c-5.29,2.54-7.98,3.9-13.46,6.68c0.03-2.84,0.04-4.15,0.07-6.53c6.82-3.58,10.16-5.32,16.67-8.46
					c18.86-9.98,23.09,15.52,22.95,29.36c-0.14,13.59-3.85,37.05-20.04,41.38c0-0.97,0.01-1.45,0.01-2.42
					c18.65,3.07,23.17,28.66,23.05,43.74c-0.15,18.42-5.52,45.84-28.48,34.33c-6.1-2.75-9.11-4.07-15.2-6.72
					c0.03-2.48,0.04-3.85,0.07-6.78c5,2.07,7.48,3.1,12.47,5.23c18.3,8.64,21.51-8.06,21.49-23.25
					c-0.02-13.93-2.12-39.62-21.96-38.81c-4.59,0.04-6.9,0.1-11.57,0.26C271.32,268.58,271.33,266.47,271.36,262.31z"/>
				<path class="st65" d="M322.26,205.65c0.01-2.53,0.01-3.7,0.02-5.81c6.25,2.82,9.46,4.27,15.95,7.2
					c0.01,2.88,0.02,4.48,0.02,7.92c-0.47-0.2-0.7-0.3-1.16-0.5C331.05,210.93,328.06,209.16,322.26,205.65z M338.26,323.96
					c6.12-1.96,9.27-3.02,15.61-5.15c-0.04,2.23-0.06,3.31-0.09,5.35c-10.97,5.36-21.86,10.9-32.74,16.44c0.04-2.19,0.05-3.4,0.09-6
					c5.69-3.75,8.68-5.69,14.78-9.53C336.85,324.63,337.32,324.41,338.26,323.96z M332.67,264.07c0.19-19.84,0.46-39.69,0.03-59.52
					c4.4,1.99,6.64,3,11.12,5.04c-0.32,18.97-0.41,37.95-0.61,56.92c-0.03,2.45-0.04,3.68-0.07,6.13
					c-0.24,19.01-0.63,38.03-0.52,57.05c-4.59,2.3-6.86,3.45-11.28,5.69c0.8-20,0.95-40.01,1.19-60.02
					C332.59,270.84,332.62,268.57,332.67,264.07z M337.9,265.34c5.88,0.16,8.88,0.23,14.91,0.42c11.31,0.51,19.71-8.29,19.39-19.37
					c-0.34-11.85-7.15-20.93-17.96-25.83c-6.45-2.84-9.67-4.24-16-6.99c0-2.8,0-4.12-0.02-6.53c6.35,2.88,9.58,4.34,16.04,7.31
					c14.09,5.97,29.13,19.7,29.25,35.62c0.1,12.58-12.46,19.81-23.87,21.85c0.15-0.55,0.23-0.83,0.38-1.37
					c8.73,1.08,14.06,6.3,17.21,17.53c2.28,8.3,3.42,11.89,5.74,18.9c-1.5-0.3-2.25-0.45-3.76-0.77c5.03-1.45,7.54-2.16,12.46-3.45
					c-0.01,1.84-0.01,2.77-0.02,4.65c-2.16,1.54-5.05,3.17-8.71,4.71c-7.57,3.19-10.92,3.01-12.32-2.33
					c-1.91-7.6-2.83-11.87-4.71-21.45c-2.28-11.9-6.82-14.55-16.81-13.95c-4.57,0.28-6.84,0.42-11.31,0.71
					C337.84,271.14,337.86,269.2,337.9,265.34z"/>
			</g>
		</g>
		<g>
			<path class="st66" d="M376.05,418.25c0.33-5.73-3.33-6.72-5.62-9.07c-5.93-6.06-12.06-11.73-18.13-17.53
				c-5.21-4.98-10.47-9.85-15.64-14.9c-1.52-1.48-2.91-2.48-4.97-2.28c-3.15,0.31-6.05-1.31-8.79-3.2c-5.8-4-11.99-6.14-18.59-6.19
				c-2.2-0.02-4.29,1.03-6.36,2.39c-1.39,0.91-2.33,1.82-2.41,4.02c-0.01,0.2-0.18,0.4-0.33,0.72c-1.94-3.47-4.86-4.36-7.69-4.99
				c-2.05-0.45-4.26,0.28-6.4,0.79c-5.94,1.41-11.81,3.24-17.32,7.06c-2.91,2.02-5.84,3.77-9.01,4.57c-0.11,0.03-0.2,0.21-0.3,0.24
				c-3.4,1.05-3.43,1.14-3.9,6.26c-0.12,1.34,0.33,3.19-1.27,3.67c-1.01,1.19-1.28,2.71-1.49,4.46c-0.55,4.64-1.22,9.26-1.88,13.88
				c-0.85,5.97-1.74,11.94-2.39,17.95c-0.28,2.57-0.82,5.08-1.08,7.65c-0.08,0.84-0.2,1.59,0.24,2.24c1.36,0.94,2.84,0.29,4.25,0.2
				c12.45-0.84,24.9-1.82,37.34-2.56c5.59-0.33,11.19-0.99,16.77-1.07c2.79-0.04,4.58-2.6,6.67-4.48c0.32-1.67-0.72-1.78-1.35-2.17
				c-2.81-1.72-5.81-2.63-8.91-3.02c-10.36-1.29-20.58,1.23-30.78,4.52c-4.36,1.41-8.59,3.8-13.05,4.54
				c-1.74,0.29-3.41-0.21-5.1-0.48c-0.64-0.11-0.67-0.95-0.68-1.69c-0.02-1.45,0.03-2.91,0.09-4.37c-0.16-0.62,0.09-1.19,0.18-1.78
				c0.03-4.64,0.99-9.16,1.49-13.74c0.75-6.82,2.09-13.55,2.37-20.45c0.07-1.85,0.52-3.68,0.65-5.54c0.08-1.17,0.58-1.69,1.39-1.83
				c3.74-0.62,7.21-2.65,10.58-5.04c3.66-2.59,7.48-4.19,11.45-5.3c2.97-0.83,5.94-1.38,8.92-2.02c3.31-0.71,6.07,0.72,8.51,3.49
				c0.43,0.49,0.8,1.1,1.39,1.28c0.18,0.05,0.37,0.04,0.55,0c0.5-0.16,0.87-0.63,1.04-1.25c1.04-3.86,3.42-4.76,5.85-5.52
				c3.33-1.05,6.54-0.23,9.71,0.75c3.85,1.19,7.53,3.03,11.05,5.35c2.54,1.67,5.15,2.86,8.03,2.79c1.93-0.04,3.49,0.96,5.02,2.44
				c12.07,11.64,24.17,23.2,36.25,34.82c0.49,0.47,1.46,0.84,0.27,1.94c-0.13,0.55,0,0.98,0.26,1.36c0.57,0.52,1.25,0.77,1.82,1.32
				C375.21,418.73,375.64,418.65,376.05,418.25z"/>
			<path class="st67" d="M307.56,427.71c-1.24,1.24-2.64,2.02-3.85,3.38c-1.29,1.45-2.92,0.72-4.37,0.83
				c-12.36,0.93-24.72,1.71-37.07,2.53c-6.49,0.43-12.98,0.87-19.47,1.31c-0.34-0.09-0.56,0-0.45,0.59
				c0.01,1.87,0.85,2.06,1.95,1.98c6.79-0.47,13.58-0.73,20.37-1.36c6.68-0.62,13.35-0.73,20.03-1.47
				c6.04-0.67,12.08-0.74,18.13-1.07c0.41-0.02,0.77,0.01,1.14,0.32c3.47,2.92,7.25,2.66,11.14,1.19c0.23-0.09,0.5-0.1,0.66-0.3
				c2.86-3.5,6.29-2.5,9.45-2.77c12.2-1.02,24.4-1.71,36.59-2.52c6.03-0.4,12.06-0.78,18.08-1.17c0.23-0.84-0.82-0.98-0.36-1.86
				c0.08-0.55-0.18-0.78-0.46-0.98c-3.01-0.89-6.08,0.11-9.12,0.25c-8.46,0.38-16.93,1.16-25.4,1.63c-7.89,0.44-15.79,1-23.68,1.68
				c-1.95,0.17-3.25-1.03-4.68-2.21c-0.6-0.3-1.21-0.56-1.83-0.77c-1.16-0.09-2.35,0.21-3.47-0.35c-0.43-0.08-0.87-0.1-1.31,0.02
				C308.87,426.8,308.23,427.3,307.56,427.71z"/>
			<path class="st68" d="M376.09,421.27c-0.07-0.2-0.15-0.4-0.22-0.6c-0.37-1.29-0.99-2.23-1.9-2.79c-0.93,0.72-0.92,2.15-1.06,3.21
				c-0.25,1.91-0.97,2.35-2.15,2.49c-2.78,0.33-5.54,0.22-8.21-0.58c-7.01-2.11-14.12-3.51-21.35-3.81
				c-6.08-0.25-12.19,0.17-18.24,2.12c-1.44,0.46-3,0.61-4.16,2.31c-0.03,0.48,0.14,0.79,0.4,1.02c0.69,0.36,1.36,0,2.03-0.24
				c6.14-2.16,12.28-2.89,18.55-2.64c8.34,0.32,16.45,2.18,24.59,3.96c1.8,0.39,3.63,0.54,5.49,0.26c3.69-0.56,3.69-0.54,5.61-3.94
				C375.77,421.9,375.99,421.68,376.09,421.27z"/>
			<path class="st66" d="M374.39,418.12c-0.11,1.55,0.99,1.7,1.48,2.54c0.27-0.79-0.21-1.63,0.18-2.41
				c-0.47-0.06-0.95-0.12-1.42-0.18C374.55,418.09,374.47,418.11,374.39,418.12z"/>
			<path class="st0" d="M295.2,374.11c-0.9-0.17-1.08-1.52-1.75-2.08c-2.7-2.25-5.45-3.54-8.88-2.88c-4.43,0.86-8.81,1.97-13.17,3.5
				c-3.18,1.11-6.11,3.24-9.07,5.22c-2.84,1.89-5.73,3.33-8.82,3.61c-0.84,0.08-1.21,0.52-1.3,1.77
				c-0.78,10.78-2.4,21.44-3.64,32.15c-0.24,2.09-0.57,4.16-0.83,6.24c-0.1,0.79-0.28,1.61,0.17,2.29c1.48,1.54,3.28,1.08,4.95,0.98
				c2.88-0.18,5.73-1.07,8.54-2.26c8.87-3.75,17.89-5.93,27-6.82c5.77-0.56,11.47-0.04,16.9,2.67c1.18,0.59,2.19,1.61,3.41,2.02
				c1.59-0.39,0.72-1.72,0.46-2.49c-1.37-4.08-2.52-8.3-3.81-12.43c-2.99-9.56-6.05-19.08-8.92-28.71
				C296.12,375.85,295.82,374.84,295.2,374.11z"/>
			<path class="st0" d="M372.8,415.95c0.44-0.77,1.1,0.02,1.61-0.58c-0.39-1.05-1.16-1.45-1.79-2.05
				c-12.42-11.93-24.85-23.82-37.26-35.76c-0.95-0.92-1.9-1.5-3.12-1.47c-3.32,0.07-6.37-1.1-9.34-3.04
				c-5.27-3.43-10.78-5.96-16.76-6.4c-1.68-0.12-3.34,0.18-4.97,0.77c-2.61,0.95-4.67,2.9-5.51,6.78c0.43,3.14,1.58,5.85,2.47,8.69
				c3.37,10.79,6.67,21.64,10.06,32.41c0.64,2.02,1.34,3.99,1.75,6.16c0.53,1.07,1.19,1.49,2.03,0.51c4.62-5.42,10.09-7.25,15.7-8.4
				c7.22-1.48,14.4-1.15,21.51-0.13c5.39,0.77,10.69,2.28,16.03,3.45C367.69,417.44,370.3,417.68,372.8,415.95z"/>
			<path class="st0" d="M307.56,427.71c0.78,0.49,1.42,0.06,2.01-0.72c2.04-3.26,2.01-3.4-0.36-5.79c-2.65-2.67-5.75-3.91-8.95-4.65
				c-10.69-2.49-21.31,0.3-31.93,3.45c-5.33,1.58-10.48,4.56-15.97,4.99c-1.54,0.12-3.02-0.74-4.57-0.02
				c-0.81,2.12-0.39,4.37-0.55,6.54c-0.08,1.16,0.94,0.87,1.51,0.97c4.61,0.82,9.06-0.74,13.57-2.53
				c11.96-4.74,24.03-7.99,36.3-6.08C301.79,424.35,304.88,425.28,307.56,427.71z"/>
			<path class="st69" d="M374.39,418.12l0.12-0.06c0,0,0.12,0.01,0.12,0.01c-0.2-1.14-0.89-1.13-1.54-1.2
				c-1.18-0.63-2.39,0.07-3.58,0.16c-4.26,0.32-8.26-1.25-12.37-2.09c-10.63-2.19-21.32-3.56-32.2-0.8
				c-4.24,1.08-8.36,2.86-11.98,6.64c-1.61,1.68-2.26,3.68-2.03,6.29c1.01,0.7,2.08,0.66,3.18,0.19c1.59-1.1,3.32-1.8,4.74-3.41
				c4.32-2.58,8.86-3.25,13.37-3.72c4.78-0.49,9.57-0.57,14.29,0.21c5.48,0.9,10.97,1.7,16.34,3.48c2.94,0.98,6.13,1.01,9.25,0.21
				c0.72-0.18,1.58-0.12,1.21-2.04C373.08,420.78,373.81,419.33,374.39,418.12z"/>
			<path class="st70" d="M310.93,427.07c-0.04-3.93,1.95-5.8,4.05-7.49c4.91-3.94,10.24-5.24,15.64-5.97
				c6.88-0.93,13.66-0.18,20.42,0.77c3.9,0.54,7.74,1.72,11.61,2.55c3.44,0.74,6.9,1.19,10.42-0.05c-0.09-0.31-0.19-0.61-0.28-0.92
				c-4.95,1.08-9.64-0.28-14.43-1.37c-11.53-2.63-23.17-4.17-35.02-0.6c-4.28,1.29-8.39,3.3-11.76,7.69
				c-1.08,1.41-1.12-0.42-1.57-0.94c-0.2-0.5-0.6-0.29-0.9-0.45c-5.34-4.18-11.24-5.33-17.42-5.2c-10.98,0.23-21.7,3.37-32.35,7.62
				c-3.79,1.51-7.61,2.05-11.44,1.21c-0.06,0.35-0.45,0.65-0.1,1.04c4.47,1.58,8.88-0.01,13.24-1.72c8.26-3.25,16.6-5.88,25.07-6.78
				c6.77-0.72,13.51-0.71,19.85,2.88c1.63,0.93,2.84,2.62,4.36,3.71c0.32,0.23,0.59,0.71,0.53,1.38c-0.1,1.22-0.58,0.21-0.86,0.35
				c-1.01,0.5,0.06,1.58-0.42,2.2C310.01,427.23,310.46,427.29,310.93,427.07z"/>
			<path class="st71" d="M309.12,420.29c0.2,0.51,0.58,0.36,0.9,0.45c-1.78-7.34-4.32-14.16-6.46-21.26
				c-2.56-8.48-5.05-17-7.9-25.28c-0.15-0.03-0.31-0.06-0.46-0.09c2.55,8.34,5.04,16.73,7.67,25.02c2.12,6.7,3.93,13.62,6.33,20.14
				C309.33,419.61,309.49,419.97,309.12,420.29z"/>
			<path class="st66" d="M379.19,426.68c0.62-1.18-0.27-1.28-0.61-1.67c-0.97-1.08-2.19-1.72-2.91-3.24c-0.62,0-1.23-1.43-1.79-0.22
				c-0.46,0.99,0.74,1.08,0.96,2.05c-3.47,2.21-6.95,2.05-10.4,1.41c-4.68-0.87-9.33-1.97-13.99-2.96
				c-5.24-1.11-10.59-1.15-15.9-1.15c-5.16,0-10.31,1.5-15.37,3.5c-1.14,0.16-2.16,0.9-3.19,1.54c-0.72,0.44-0.98,1.13-0.29,1.96
				c1.76,2.58,3.99,2.88,6.52,2.68c14.79-1.14,29.58-2.13,44.37-3.15C370.79,427.16,374.99,426.93,379.19,426.68z"/>
			<path class="st72" d="M315.7,427.91c-0.32-1.43,0.34-1.97,1.15-2.08c0.9-0.13,1.63-0.69,2.34-1.42
				c-0.11-0.19-0.23-0.38-0.34-0.56c-1.69,0.79-3.42,1.5-4.74,3.41C314.6,427.63,315.05,428.18,315.7,427.91z"/>
			<path class="st73" d="M299.55,401.34c-0.36-0.76-0.97-0.9-1.52-1.15c-7.35-3.25-14.82-2.89-22.34,0.58
				c-6.34,2.92-12.76,5.07-19.34,5.99c-0.33,0.05-0.66,0.15-1.19,0.28c1.63,0.76,2.21,0.69,6.15-0.31
				c5.59-1.43,11.07-3.6,16.55-5.86c6.97-2.87,13.82-2.53,20.52,0.35C298.71,401.36,299.02,401.96,299.55,401.34z"/>
			<path class="st74" d="M302.65,411.41c-2.05-1.45-4.12-1.93-6.16-2.42c-7.01-1.68-13.98-0.98-21.02,1.95
				c-6.43,2.67-12.99,4.37-19.64,4.76c-0.33,0.02-0.69-0.13-1.11,0.55c3.21,0.46,6.27-0.37,9.32-0.94
				c5.63-1.04,11.05-3.73,16.61-5.31c7.13-2.03,14.08-1.23,20.86,1.53c0.21,0.09,0.44,0.15,0.66,0.2
				C302.23,411.74,302.28,411.66,302.65,411.41z"/>
			<path class="st75" d="M254.81,411.88c3,0.36,5.68-0.4,8.34-1.05c4.62-1.13,9.2-2.61,13.72-4.54c8.01-3.42,15.86-3.2,23.55,0.32
				c0.15,0.07,0.32,0.03,0.64,0.06c-0.31-1.24-1.11-1.19-1.64-1.39c-8.18-3.07-16.38-2.93-24.78,0.95
				c-5.87,2.72-11.92,4.46-18.06,4.83C256.09,411.1,255.56,411.02,254.81,411.88z"/>
			<path class="st76" d="M298.04,396.37c-1.96-1.89-4.27-2.6-6.61-3.02c-5.58-1.02-11.08,0.09-16.52,2.72
				c-6.07,2.93-12.2,5.43-18.56,6.23c-0.28,0.04-0.58,0.09-0.78,0.67c1.62,0.42,3.19-0.2,4.72-0.64c5.16-1.46,10.28-3.18,15.31-5.65
				C283.16,392.98,290.65,392.99,298.04,396.37z"/>
			<path class="st77" d="M255.45,398.48c1.78,0.53,3.23-0.13,4.63-0.59c4.97-1.65,9.93-3.38,14.76-5.88
				c7.15-3.69,14.24-4.37,21.21-0.67c0.22,0.11,0.42,0.22,0.78-0.28c-2.16-1.66-4.48-2.35-6.88-2.78
				c-6.42-1.14-12.52,1.35-18.61,4.44c-4.89,2.49-9.89,4.32-15.02,5.16C256.12,397.92,255.93,398.15,255.45,398.48z"/>
			<path class="st73" d="M255.93,393.94c3.91-0.21,7.55-1.86,11.22-3.32c4.58-1.83,8.93-4.86,13.64-6.06
				c4.8-1.22,9.39-0.89,13.76,1.78c0.18,0.11,0.37,0.2,0.78,0.41c-0.29-1.68-1.18-1.76-1.83-2.06c-5.86-2.68-11.8-2.07-17.72,0.92
				c-6.38,3.22-12.76,6.32-19.41,7.96C256.21,393.59,256.08,393.81,255.93,393.94z"/>
			<path class="st78" d="M256.34,389.98c3.08-0.7,6.06-2.05,9.02-3.43c4.2-1.97,8.33-4.31,12.56-6.11c5.32-2.26,10.6-2.5,15.57,0.95
				c0.07,0.05,0.2-0.06,0.49-0.16c-1.35-1.74-2.98-2.27-4.6-2.71c-5.46-1.51-10.74,0.3-15.94,3.14c-5.51,3-11.05,5.77-16.81,7.42
				C256.48,389.11,256.27,389.16,256.34,389.98z"/>
			<path class="st79" d="M292.32,376.28c-1.94-2.58-4.42-3.08-6.98-3.21c-4.08-0.21-8,1.22-11.81,3.47
				c-5.4,3.2-10.91,5.89-16.52,8.11c-0.21,0.08-0.4,0.26-1.03,0.69c1.44,0.32,2.36-0.35,3.26-0.73c5.36-2.26,10.58-5.15,15.8-8.01
				c4.6-2.52,9.3-3.83,14.05-2C290.2,375.01,291.24,375.71,292.32,376.28z"/>
			<path class="st80" d="M309.92,400.52c2.43-0.95,4.75-2.08,7.15-2.75c7.66-2.15,15.09-1.36,22.46,1.08
				c4.14,1.37,8.4,2.01,12.73,1.9c0.22-0.01,0.46,0,0.61-0.51c-2.54-0.39-5.12-0.39-7.66-0.87c-4.63-0.88-9.08-2.81-13.77-3.36
				c-6.62-0.78-13.17-0.25-19.65,2.83c-0.6,0.29-1.19,0.66-1.77,1.02C309.97,399.88,309.97,400.11,309.92,400.52z"/>
			<path class="st81" d="M353.69,408.57c-13.39-4.68-26.87-5.7-40.67,1.12c0.55,1.08,1.13,0.32,1.56,0.14
				c8.63-3.77,17.35-4.99,26.12-3.66c3.62,0.55,7.18,1.65,10.76,2.48c0.73,0.17,1.47,0.25,2.2,0.37c0.11-0.1,0.15-0.19,0.13-0.3
				C353.76,408.63,353.73,408.57,353.69,408.57z"/>
			<path class="st82" d="M349.08,395.61c-1.73-0.14-3.08-0.31-4.44-0.35c-5.43-0.15-10.5-2.64-15.8-3.62
				c-6.28-1.15-12.54-0.83-18.75,2.19c-0.62,0.3-1.39,0.37-1.72,1.44c0.29,0.69,0.61,0.17,0.89,0.01
				c7.21-4.08,14.51-4.15,21.77-2.34c5.26,1.31,10.37,3.55,15.83,3.42C347.45,396.34,348.09,396.73,349.08,395.61z"/>
			<path class="st83" d="M306.81,390.5c2.98-1.67,6.05-2.63,9.18-3.04c5.66-0.74,11.07,0.58,16.41,2.6
				c3.57,1.34,7.24,2.03,10.99,1.98c0.38-0.01,0.79,0.08,1.33-0.84c-2.16-0.17-4.06-0.33-5.97-0.48c-4.6-0.38-8.83-2.82-13.35-3.68
				c-5.35-1.01-10.69-1.18-16.03,1.36C308.45,388.83,307.5,389.23,306.81,390.5z"/>
			<path class="st84" d="M303.53,380.68c6.29-4.49,12.44-2.89,18.51-0.77c4.06,1.42,8,3.4,12.33,3.2c0.54-0.02,1.1,0.37,1.63-0.24
				c-0.07-0.88-0.58-0.67-0.91-0.66c-4.67,0.19-8.96-1.75-13.34-3.33c-4.44-1.6-9-2.66-13.72-1.34
				C306.36,378,304.67,378.54,303.53,380.68z"/>
			<path class="st85" d="M346.14,403.2c-3.39-0.97-6.74-2.12-10.22-2.59c-7.99-1.08-15.89-0.04-23.69,3.68
				c-0.26,0.12-0.49,0.36-0.8,0.6c0.55,0.74,1.02,0.2,1.47,0.01c7.6-3.23,15.29-4.69,23.04-3.46c3.06,0.48,6.06,1.42,9.08,2.15
				C345.42,403.66,345.9,404.32,346.14,403.2z"/>
			<path class="st86" d="M334.81,386.48c-5.35-1.01-10.36-3.93-15.79-4.51c-4.06-0.43-8.12-0.47-12.08,1.84
				c-0.63,0.37-1.35,0.58-1.76,1.51c0.08,0.43,0.33,0.41,0.52,0.27c5.43-3.95,10.95-3.2,16.53-2.19c4.13,0.75,7.88,3.44,12.12,3.53
				C334.51,386.8,334.73,386.79,334.81,386.48z"/>
			<path class="st87" d="M302.09,375.6c3.74-3.24,7.64-2.58,11.47-1.79c3.71,0.77,7.26,2.4,10.83,3.93c2.35,1.01,4.92,0.62,7.8,0.91
				c-0.47-0.48-0.56-0.66-0.64-0.65c-5.56,0.41-10.44-2.86-15.63-4.46c-3.07-0.94-6.17-1.58-9.38-1.01
				C304.82,372.84,303.2,373.51,302.09,375.6z"/>
			<path class="st88" d="M346.14,403.2c-0.32,0.47-0.74,0.25-1.11,0.38c3.94,1.4,7.97,1.79,12.1,1.29
				C353.47,404.26,349.77,403.97,346.14,403.2z"/>
			<path class="st89" d="M353.69,408.57c-0.01,0.15-0.02,0.3-0.03,0.45c2.46,0.4,4.93,0.61,7.46,0.15
				C358.64,408.97,356.17,408.77,353.69,408.57z"/>
			<path class="st90" d="M334.81,386.48c-0.15,0.16-0.31,0.31-0.46,0.47c1.98,0.16,3.95,0.32,5.93,0.48
				c0.02-0.17,0.03-0.33,0.05-0.5C338.48,386.78,336.65,386.63,334.81,386.48z"/>
		</g>
	</g>
</g>
</svg>
